<?xml version="1.0" encoding="utf-8"?>
<!-- Generator: Adobe Illustrator 26.0.2, SVG Export Plug-In . SVG Version: 6.00 Build 0)  -->
<svg version="1.1" id="Layer_3" xmlns="http://www.w3.org/2000/svg" xmlns:xlink="http://www.w3.org/1999/xlink" x="0px" y="0px"
	 viewBox="0 0 64 64" style="enable-background:new 0 0 64 64;" xml:space="preserve">
<g>
	<path d="M31,48v10c0,0.553,0.448,1,1,1h16c0.552,0,1-0.447,1-1V48c0-0.553-0.448-1-1-1H32C31.448,47,31,47.447,31,48z M33,49h14v8
		H33V49z"/>
	<rect x="35" y="51" width="2" height="4"/>
	<rect x="39" y="51" width="2" height="4"/>
	<rect x="43" y="51" width="2" height="4"/>
	<path d="M61,16c0-8.271-6.729-15-15-15S31,7.729,31,16c0,1.027,0.105,2.03,0.302,3H4c-0.552,0-1,0.447-1,1v42c0,0.553,0.448,1,1,1
		h48c0.552,0,1-0.447,1-1V29.256C57.752,26.737,61,21.743,61,16z M32,21.341v16.245l-4.293-4.293c-0.391-0.391-1.023-0.391-1.414,0
		L22,37.586V21h9.875C31.916,21.114,31.957,21.228,32,21.341z M51,61H5V21h15v19c0,0.404,0.244,0.77,0.617,0.924
		c0.373,0.155,0.803,0.069,1.09-0.217L27,35.414l5.293,5.293C32.484,40.898,32.74,41,33,41c0.129,0,0.259-0.024,0.383-0.076
		C33.756,40.77,34,40.404,34,40V24.962C36.738,28.619,41.091,31,46,31c1.755,0,3.433-0.319,5-0.875V61z M46,29
		c-7.168,0-13-5.832-13-13S38.832,3,46,3s13,5.832,13,13S53.168,29,46,29z"/>
	<path d="M56.342,12.955l-0.995-0.362c-0.109-0.299-0.233-0.593-0.372-0.882l0.395-1.184c0.12-0.359,0.026-0.756-0.242-1.023
		l-2.631-2.632c-0.268-0.268-0.665-0.364-1.024-0.241l-1.184,0.395c-0.288-0.138-0.583-0.262-0.882-0.372l-0.361-0.995
		C48.902,5.263,48.526,5,48.105,5h-4.211c-0.42,0-0.796,0.263-0.94,0.658l-0.361,0.995c-0.299,0.11-0.594,0.234-0.882,0.372
		l-1.184-0.395c-0.36-0.122-0.756-0.026-1.024,0.241l-2.631,2.632c-0.268,0.268-0.361,0.664-0.242,1.023l0.395,1.184
		c-0.139,0.289-0.263,0.583-0.372,0.882l-0.995,0.362C35.263,13.099,35,13.474,35,13.895v4.211c0,0.421,0.263,0.796,0.658,0.939
		l0.995,0.362c0.109,0.299,0.233,0.593,0.372,0.882l-0.395,1.184c-0.12,0.359-0.026,0.756,0.242,1.023l2.631,2.632
		c0.267,0.268,0.663,0.362,1.024,0.241l1.184-0.395c0.288,0.138,0.583,0.262,0.882,0.372l0.361,0.995
		c0.144,0.396,0.52,0.658,0.94,0.658h4.211c0.42,0,0.796-0.263,0.94-0.658l0.361-0.995c0.299-0.11,0.594-0.234,0.882-0.372
		l1.184,0.395c0.359,0.122,0.756,0.026,1.024-0.241l2.631-2.632c0.268-0.268,0.361-0.664,0.242-1.023l-0.395-1.184
		c0.139-0.289,0.263-0.583,0.372-0.882l0.995-0.362C56.737,18.901,57,18.526,57,18.105v-4.211
		C57,13.474,56.737,13.099,56.342,12.955z M55,17.405l-0.789,0.287c-0.294,0.106-0.522,0.346-0.614,0.646
		c-0.147,0.479-0.344,0.95-0.585,1.401c-0.129,0.242-0.154,0.526-0.067,0.787l0.332,0.993l-1.757,1.757l-0.993-0.331
		c-0.262-0.088-0.546-0.062-0.789,0.066c-0.448,0.24-0.92,0.437-1.401,0.585c-0.3,0.093-0.539,0.32-0.646,0.614L47.405,25h-2.81
		l-0.287-0.789c-0.107-0.294-0.346-0.521-0.646-0.614c-0.481-0.148-0.953-0.345-1.401-0.585c-0.241-0.129-0.526-0.154-0.789-0.066
		l-0.993,0.331l-1.757-1.757l0.332-0.993c0.087-0.261,0.062-0.545-0.067-0.787c-0.241-0.451-0.438-0.923-0.585-1.401
		c-0.092-0.3-0.319-0.539-0.614-0.646L37,17.405v-2.811l0.789-0.287c0.294-0.106,0.522-0.346,0.614-0.646
		c0.147-0.479,0.344-0.95,0.585-1.401c0.129-0.242,0.154-0.526,0.067-0.787l-0.332-0.993l1.757-1.757l0.993,0.331
		c0.262,0.09,0.547,0.062,0.789-0.066c0.448-0.24,0.92-0.437,1.401-0.585c0.3-0.093,0.539-0.32,0.646-0.614L44.595,7h2.81
		l0.287,0.789c0.107,0.294,0.346,0.521,0.646,0.614c0.481,0.148,0.953,0.345,1.401,0.585c0.242,0.129,0.527,0.156,0.789,0.066
		l0.993-0.331l1.757,1.757l-0.332,0.993c-0.087,0.261-0.062,0.545,0.067,0.787c0.241,0.451,0.438,0.923,0.585,1.401
		c0.092,0.3,0.319,0.539,0.614,0.646L55,14.595V17.405z"/>
	<path d="M46,10c-3.309,0-6,2.691-6,6s2.691,6,6,6s6-2.691,6-6S49.309,10,46,10z M46,20c-2.206,0-4-1.794-4-4s1.794-4,4-4
		s4,1.794,4,4S48.206,20,46,20z"/>
</g>
</svg>
